
    <svg fill="currentColor" xmlns="http://www.w3.org/2000/svg" width="1em" viewBox="0 0 24 24" fill-rule="evenodd" clip-rule="evenodd" stroke-linejoin="round" stroke-miterlimit="1.414">
      <path d="M 14.398438 4.3066406 C 14.213313 4.3066406 14.028438 4.3705 13.898438 4.5 L 12.898438 5.5 L 15.148438 7.75 L 16.148438 6.5 C 16.148438 6.5 16.408438 6.009 16.148438 5.75 L 14.898438 4.5 C 14.768937 4.3705 14.583562 4.3066406 14.398438 4.3066406 z M 12.148438 6.25 L 8.1484375 10.5 C 9.3454375 10.104 9.7564375 10.442 11.648438 11.25 L 14.398438 8.5 L 12.148438 6.25 z M 7.8027344 6.7519531 C 6.7878027 6.7471875 6.0396875 6.97625 5.6484375 7.5 L 2 12.898438 C 2.265 13.332438 2.9174375 13.715 3.8984375 13 L 9.8984375 7 C 9.1165625 6.84175 8.4116934 6.7548125 7.8027344 6.7519531 z M 15.648438 8.5 L 13.148438 11 L 13.648438 12 L 13.148438 12.5 L 8.7714844 10.810547 C 8.0974844 10.630547 7.3803281 10.991016 7.1113281 11.666016 C 6.8413281 12.341016 7.2702031 13.080875 7.7832031 13.421875 L 13.148438 16.595703 C 13.777437 16.899703 14.465438 17.106 15.148438 17 C 16.196438 16.838 19.148438 16.029297 19.148438 16.029297 L 19.148438 10 L 15.648438 8.5 z M 20.148438 9 L 20.148438 17 L 22.148438 17 L 22.148438 9 L 20.148438 9 z M 6.6484375 11.75 L 3.1484375 15.25 L 3.1484375 17.470703 L 5.3984375 17.25 L 8.6484375 14.5 C 7.3814375 14.078 5.9994375 13.196 6.6484375 11.75 z"></path>
    </svg>